<?xml version="1.0" encoding="utf-8"?>
<!-- Generator: Adobe Illustrator 24.3.0, SVG Export Plug-In . SVG Version: 6.00 Build 0)  -->
<svg version="1.1" id="Layer_1" xmlns="http://www.w3.org/2000/svg" xmlns:xlink="http://www.w3.org/1999/xlink" x="0px" y="0px"
	 viewBox="0 0 871.9 752.7" style="enable-background:new 0 0 871.9 752.7;" xml:space="preserve">
<style type="text/css">
	.st0{fill:#00012A;}
	.st1{fill:#11006A;}
	.st2{clip-path:url(#SVGID_2_);}
	.st3{clip-path:url(#SVGID_4_);}
	.st4{clip-path:url(#SVGID_6_);}
	.st5{clip-path:url(#SVGID_8_);}
	.st6{fill:#F9C9FF;}
</style>
<polyline class="st0" points="416.8,0 1.2,753.9 860.4,737.2 416.8,0 "/>
<image style="overflow:visible;opacity:0.75;enable-background:new    ;" width="941" height="833" xlink:href="E953E35B.png"  transform="matrix(1 0 0 1 -55.9 -53.34)">
</image>
<path class="st1" d="M417.7,0l-4,456.5c-0.2,23.1-12.1,44.4-31.6,56.8L2,753.9L417.7,0z"/>
<g>
	<defs>
		<path id="SVGID_1_" d="M417.7,0l-4,456.5c-0.2,23.1-12.1,44.4-31.6,56.8L2,753.9L417.7,0z"/>
	</defs>
	<clipPath id="SVGID_2_">
		<use xlink:href="#SVGID_1_"  style="overflow:visible;"/>
	</clipPath>
	<g class="st2">
		<g transform="translate(564.7)">
			
				<image style="overflow:visible;enable-background:new    ;" width="1109" height="1180" id="image" xlink:href="E953E359.png"  transform="matrix(1 0 0 1 -64.9 -365.34)">
			</image>
		</g>
	</g>
</g>
<path class="st1" d="M861.2,738.4L467.8,506.7c-19.9-11.7-32.4-32.7-33.4-55.7L416.1,1.5L861.2,738.4z"/>
<g>
	<defs>
		<path id="SVGID_3_" d="M861.2,738.4L467.8,506.7c-19.9-11.7-32.4-32.7-33.4-55.7L416.1,1.5L861.2,738.4z"/>
	</defs>
	<clipPath id="SVGID_4_">
		<use xlink:href="#SVGID_3_"  style="overflow:visible;"/>
	</clipPath>
	<g class="st3">
		<g transform="matrix(-0.5, 0.87, -0.87, -0.5, 2048.48, 868.44)">
			
				<image style="overflow:visible;enable-background:new    ;" width="1109" height="1180" id="image_2_" xlink:href="E953E35F.png"  transform="matrix(-0.5 0.87 -0.87 -0.5 1418.88 503.1)">
			</image>
		</g>
	</g>
</g>
<path class="st1" d="M0,753.3l397.4-224.8c20.1-11.3,44.5-11.7,64.9-1l398.4,208.8L0,753.3z"/>
<g>
	<defs>
		<path id="SVGID_5_" d="M0,753.3l397.4-224.8c20.1-11.3,44.5-11.7,64.9-1l398.4,208.8L0,753.3z"/>
	</defs>
	<clipPath id="SVGID_6_">
		<use xlink:href="#SVGID_5_"  style="overflow:visible;"/>
	</clipPath>
	<g class="st4">
		<g transform="matrix(-0.5, -0.87, 0.87, -0.5, 554.5, 1719.21)">
			
				<image style="overflow:visible;enable-background:new    ;" width="1109" height="1180" id="image_3_" xlink:href="E953E358.png"  transform="matrix(-0.5 -0.87 0.87 -0.5 -75.1 1353.87)">
			</image>
		</g>
	</g>
</g>
<path class="st1" d="M417.7,0l-4,456.5c-0.2,23.1-12.1,44.4-31.6,56.8L2,753.9L417.7,0z"/>
<g>
	<defs>
		<path id="SVGID_7_" d="M417.7,0l-4,456.5c-0.2,23.1-12.1,44.4-31.6,56.8L2,753.9L417.7,0z"/>
	</defs>
	<clipPath id="SVGID_8_">
		<use xlink:href="#SVGID_7_"  style="overflow:visible;"/>
	</clipPath>
	<g class="st5">
		<g transform="translate(564.7 0)">
			
				<image style="overflow:visible;enable-background:new    ;" width="1109" height="1180" id="image_4_" xlink:href="E953E356.png"  transform="matrix(1 0 0 1 -64.9 -365.34)">
			</image>
		</g>
	</g>
</g>
<image style="display:none;overflow:visible;enable-background:new    ;" width="682" height="257" xlink:href="E953E357.png"  transform="matrix(1 0 0 1 -75.5667 428.8029)">
</image>
<path class="st6" d="M138.6,529.8c4.4,0.4,8.9,0.7,10,0.7s2.1,3.6,2.1,8v145.1c0,4.4-1.8,8-4.1,8s-6.1,0.1-8.6,0.3
	s-13.9,0.9-13.9,0.2s3.2-3,7.1-5c0,0,0.7-0.4,3-4.1c2.5-4.1,4.1-8.6,4.8-13.3c0.9-5.3,1.2-25.6,1.2-25.6c0.1-4.4,0.1-11.6,0.1-16
	v-48c0-4.4-0.2-11.6-0.5-16c0,0-1.1-16.9-4.3-22.4s-4.5-6.2-4.5-6.2c-3.9-2.1-7-4.5-7-5.2s2.8-1.1,6.3-0.9L138.6,529.8z
	 M217.2,691.8c-4.4-0.2-11.5-0.3-15.9-0.3h-33.6c-4.4,0-8-3.6-8-8v-145c0-4.4,3.6-8,8-8h20.1c4.4,0,11.6-0.1,16-0.2l22.5-1.1
	c4.4-0.2,7.9,2,7.7,4.9v1.5c0,2,0.2,6.8,0.6,14.2l0.2,5c0.1,1.7,0.1,4,0.1,5s-0.5,1.9-1,1.9s-2.5-3.3-4.3-7.3c0,0-3.1-7.1-6.9-9.6
	s-13.5-3.1-13.5-3.1c-4.4-0.3-11.6-0.5-16-0.5h-3.7c-4.4,0-9.4,0.1-11,0.1c-1.6,0.1-6.2,3.3-6.8,6.5s-1.5,21.2-1.5,24.1
	s-0.1,8.8-0.1,13.2v8.9c0,4.4,3.6,8,8,8h10.8c4.4,0,11.6-0.2,16-0.5c0,0,8.8-0.6,12.1-2.7s5.3-7.7,5.3-7.7c1.5-4.2,3.3-7.5,4-7.5
	s1.1,3.6,0.9,8c0,0-0.5,9.1-0.5,15.8c0,4.3,0.2,9.9,0.7,16.8c0.2,2,0.3,4.1,0.3,4.1c0.2,4.4-0.2,8-1,8s-2-3.5-2.9-7.8
	c0,0-1.4-7.3-5-10.6s-9.5-4.1-9.5-4.1c-4.4-0.5-11.6-1-16-1h-15.1c-4.4,0-8,3.6-8,8v17.3c0,4.4,0.1,11.6,0.2,16l0.9,17.8
	c0.4,4.4,2.3,8.2,4.3,8.4c2,0.3,11.2,0.5,15.6,0.5h2.9c4.4,0,11.6-0.3,16-0.6c0,0,10-0.8,15.2-3.6c5.5-3,11.8-13,11.8-13
	c2.4-3.7,4.9-6.8,5.5-6.8s0.5,3.5-0.5,7.8c0,0-0.5,2.3-2.3,8.4c-2.2,8-3.2,12.8-3.2,12.8C235.3,689.9,221.6,692,217.2,691.8
	L217.2,691.8z"/>
<path class="st6" d="M270.4,506.4c4.5,0.3,7.9,3.9,8,8.4v129.8c0,4.4,0.1,11.6,0.2,16c0,0,0.4,14.9,1.6,19.2c0.5,2.1,1.2,4.1,2.1,6
	c2.1,3.9,0.6,5.3-3.2,3.3c0,0-1-0.5-3.5-4.1c-2.5-3.4-4.2-7.9-5.1-13.6c-0.8-5.1-1.1-19.2-1.1-19.2c-0.1-4.4-0.1-11.6-0.1-16v-86.4
	c0-4.4-0.1-11.6-0.1-16c0-3.6-0.3-7.2-0.7-10.8c-0.6-3.6-2.2-7-4.5-9.8l-2.3-2.9c-3.7-1.5-6.7-3.2-6.7-4s2.9-1.2,6.5-1l5.3,0.6
	C269.3,506.3,270.4,506.4,270.4,506.4z M313.9,687.6c2.7-1,5.1-1.1,5.2-0.2s-2.7,3.6-6.3,6.1c0,0-1.6,1.1-6.4,1.1
	c-6.8,0-11.8-3.2-15-9.6c-3.2-6.3-4.3-24.3-4.3-24.3c-0.3-4.4-0.5-11.6-0.5-16V514.8c0-4.4,1.9-8.1,4.2-8.2s6.1,3.1,5.9,7.4
	l-0.8,21.7c-0.1,4.4-0.2,11.6-0.2,16v86.4c0,4.4,0,11.6,0.1,16c0,0,0.2,13.1,0.6,17.7c0.3,4.2,1.9,8.1,4.6,11.3
	c2.5,3.1,6,4.6,10.4,4.6L313.9,687.6z"/>
<path class="st6" d="M342.2,535.6c1.6-2.1,5.3-1.2,8.2,2.1l7,8c2.9,3.3,3.9,7.7,2.3,9.8s-5.3,1.1-8.2-2.2l-6.8-7.8
	C341.6,542.2,340.6,537.7,342.2,535.6z M340.8,661.5c-0.3-4.4-0.5-11.6-0.5-16v-54.9c0-4.4,2.1-8,4.6-8s4.6,3.6,4.6,8v60.2
	c0,4.4,0.2,11.6,0.4,16c0,0,0.5,11.2,2.4,16c1.7,5,2.5,5.6,2.5,5.6c3.4,2.8,5.3,5.1,4.3,5.1s-4.8-2.2-8.3-4.8
	c-2.6-2.2-4.7-4.9-6.3-8C341.6,675.3,340.8,661.5,340.8,661.5z M353.6,520.3c1.6-2.1,5.3-1.2,8.2,2.2l6.9,7.9
	c2.9,3.3,3.9,7.8,2.3,9.9s-5.3,1.1-8.2-2.2l-6.9-7.9C353,526.9,352,522.4,353.6,520.3z M358,664.1c-0.1-4.4-0.2-11.6-0.2-16v-57.5
	c0-4.4,2.1-8,4.6-8s4.7,3.6,4.7,8v59.8c0.1,5.3,0.6,10.6,1.5,15.9c0,0,3.8,20,14.3,20h3.4c2.7-1.3,4.9-1.7,4.9-0.8s-2.9,3.8-6.5,6.4
	c0,0-2.4,1.7-7.4,1.7c-4.5,0.1-8.7-1.8-11.7-5.2c-3.2-3.2-5.4-7.3-6.3-11.8C358.2,672.3,358,664.1,358,664.1L358,664.1z"/>
<path class="st6" d="M413.1,660.1c-0.2-4.4-0.4-11.6-0.4-16v-40.8c0-4.4-1.8-8-4-8s-4-0.3-4-0.6s2.3-3.3,5.2-6.7l6.7-7.9
	c2.9-3.3,5.2-2.5,5.2,1.9v71.1c0,4.4,0.2,11.6,0.4,16c0,0,0.4,8.9,2,12.8l1.6,4c2.7,2.7,1.5,3.8-2.7,2.5c0,0-3.9-1.2-6.5-6.7
	S413.1,660.1,413.1,660.1z M436.2,555.4c1.7-2.6,3.1-1.1,3.1,3.3v18.1c0,4.4,3.6,8,8,8h5.2c4.4,0,11.1-0.2,14.8-0.5l2-1l2.2-1.1
	c2.9-3.2,6-5.8,6.8-5.8s-0.3,3.1-2.7,6.8c0,0-4.4,7.2-6.6,9.2l-2.1,1.9c-5.1,0.6-10.2,0.9-15.4,1h-4.4c-4.4,0-8,3.6-8,8v42.3
	c0,4.4,0.1,11.6,0.2,16c0.1,3.3,0.4,6.6,0.9,9.9c0.7,3.2,2.4,6.1,4.8,8.2c2.6,2.2,6.2,3.4,10.8,3.4c9.2,0,18.4-10,18.4-10
	c3-3.2,6-5.5,6.7-5s-0.7,3.9-3.2,7.5c0,0-12.1,17.7-25,17.7c-5,0.2-10-1.4-13.9-4.6c-3.7-2.9-6.4-7-7.6-11.6
	c-0.9-4.2-1.4-8.4-1.5-12.6c-0.2-4.4-0.3-11.6-0.3-16v-76C429.7,568.2,434.5,558,436.2,555.4z"/>
<path class="st6" d="M509.7,671.8c1.5,4.2,2.5,7.8,2.4,8c-0.1,0.2-2.5-2.3-5.3-5.7c0,0-13.7-16.6-13.7-35.5c0-7.2,1.1-14.4,3.3-21.2
	c2.2-6.8,8.8-14.5,8.8-14.5c2.9-3.3,5.3-5.9,5.5-5.7s-0.8,3.8-2.1,8c0,0-5.4,16.8-5.4,32.4C503.3,653.7,509.7,671.8,509.7,671.8z
	 M578.4,622.4c0.8,3.5-1.4,6.9-4.8,7.7c-0.6,0.1-1.1,0.2-1.7,0.2h-41.5c-4.4,0-8.1,3.6-8.2,8c0,0,0,0.2,0,1.3
	c0,13.2,2.9,23.9,8.8,31.9c5.9,7.9,13.5,11.9,22.9,11.9c7.7,0,15.2-2.8,21.1-7.8c6.3-5.2,11-13.9,11-13.9c2.1-3.9,5-7,6.5-7
	s0.9,3.2-1.2,7c0,0-18.2,33.2-39.6,33.2c-12.8,0-22.7-5.5-29.6-16.5s-10.4-24.8-10.4-41.4c0-16.1,3.2-29.5,9.7-40.2
	s14.8-16,24.9-15.9c8.3,0,15.5,3.8,21.8,11.5C574.3,599.9,578.4,622.4,578.4,622.4z M525,611.1c-0.9,3.3,1,6.7,4.3,7.6
	c0.6,0.2,1.3,0.3,2,0.2h28.2c3.6,0.1,6.6-2.7,6.8-6.3c0-0.5,0-1.1-0.1-1.6c-0.8-4.1-2.3-8.1-4.5-11.7c-3.3-5.5-9.2-8.8-15.6-8.6
	c-6,0-11.1,2.6-15.3,7.8C526.6,603.8,525,611.1,525,611.1z M596.9,622.6c1.2,4.2-0.3,7.7-3.4,7.7s-6-3.6-6.6-7.9l-7.1-25.8
	c-2-3.9-1.1-4.6,2.1-1.5L596.9,622.6z"/>
<path class="st6" d="M707.1,530.5c4.4,0,6.2,3.1,3.9,6.9l-88,147.3c-2.3,3.8-6.8,6.9-10.2,6.9s-4.2-3.1-2-6.9l81.6-136.2
	c2.3-3.8,0.5-6.9-3.9-6.9h-27.4c-4.4,0-11.6,0.3-16,0.7c0,0-15.2,1.2-20.8,5s-10.1,15.3-10.1,15.3c-1.6,4.1-3.5,7.5-4.3,7.5
	s-1.2-3.6-0.9-8c0,0,0.3-4.8,1.6-16.2c0.5-3.9,0.9-7.7,1-11.6V534c-0.1-2.9,3.3-5,7.7-4.6l18,0.9c4.4,0.1,11.6,0.2,16,0.2
	L707.1,530.5z M638.2,691.6c-4.4,0-6.2-3.1-3.9-6.9l88.2-147.3c2.3-3.8,6.8-6.9,10.1-6.9s4.2,3.1,1.9,6.9l-81.2,136.2
	c-2.2,3.8-0.5,6.9,3.9,6.9H681c4.4,0,11.6-0.4,16-0.9c0,0,18.8-2.2,25.4-8.5c6.4-6.1,11.3-16.3,11.3-16.3c1.9-4,4.1-7.2,4.9-7.2
	s0.9,3.6,0.3,7.9c0,0-0.6,4.5-3.5,15.8c-2.7,10.7-3.3,14.4-3.3,14.4c-0.8,4.4-4.8,7.5-9.2,7.2l-14.5-0.9c-4.4-0.1-11.6-0.2-16-0.2
	L638.2,691.6z"/>
</svg>
